<?xml version="1.0" encoding="UTF-8" standalone="no"?>
<svg width="31px" height="36px" viewBox="0 0 31 36" version="1.1" xmlns="http://www.w3.org/2000/svg" xmlns:xlink="http://www.w3.org/1999/xlink">
    <!-- Generator: Sketch 43.1 (39012) - http://www.bohemiancoding.com/sketch -->
    <title>Group</title>
    <desc>Created with Sketch.</desc>
    <defs></defs>
    <g id="Page-1" stroke="none" stroke-width="1" fill="none" fill-rule="evenodd">
        <g id="Group" fill-rule="nonzero">
            <path d="M19.0838419,24.0814624 C18.8049911,25.5455748 17.8646013,25.9420064 17.0295895,25.9420064 L10.7737792,25.9420064 L13.4097669,11.0399649 C10.7774767,9.80613044 8.09003265,9 5.94981406,9 C3.91374087,9 2.26035576,9.56448084 1.16097484,10.9174027 C0.386046863,11.8786312 -3.05758526e-05,13.0657151 -3.05758526e-05,14.4773911 C-3.05758526e-05,18.7139983 3.25035322,24.5925592 8.81350418,29.3876455 C13.7730432,33.6264638 19.2286595,36 23.1997417,36 C25.1806609,36 26.7788922,35.3780287 27.827741,34.136613 C28.6535091,33.1760164 28.982584,31.9304942 28.982584,30.5188183 C28.982584,26.4022462 25.7087828,20.631401 20.4346507,15.9456098 L19.0838419,24.0814624 Z" id="Fill-1" fill="#861D3F"></path>
            <path d="M9.13172122,-9.40374944e-05 C8.14626168,-9.40374944e-05 7.3274405,0.677890865 7.10912896,1.74204193 L6.23557703,6.615509 L14.0422022,6.615509 L10.6910894,25.5599054 L16.8989036,25.5599054 C17.727509,25.5599054 18.6606839,25.1668435 18.9373953,23.7140187 L21.7763626,6.615509 L27.3916168,6.615509 C28.3807455,6.615509 29.1977322,5.94222579 29.416961,4.87901507 L30.2932647,-9.40374944e-05 L9.13172122,-9.40374944e-05 Z" id="Fill-4" fill="#FFFFFF"></path>
        </g>
    </g>
</svg>