<?xml version="1.0" encoding="UTF-8" standalone="no"?>
<svg width="238px" height="36px" viewBox="0 0 238 36" version="1.1" xmlns="http://www.w3.org/2000/svg" xmlns:xlink="http://www.w3.org/1999/xlink">
    <!-- Generator: Sketch 43.1 (39012) - http://www.bohemiancoding.com/sketch -->
    <title>Group</title>
    <desc>Created with Sketch.</desc>
    <defs></defs>
    <g id="Page-1" stroke="none" stroke-width="1" fill="none" fill-rule="evenodd">
        <g id="Group" fill="#FFFFFF">
            <g id="logo" transform="translate(227.000000, 0.000000)" fill-rule="nonzero">
                <g id="Group-3">
                    <path d="M2.69340806,0.824067304 L3.76092664,0.824067304 C4.07722844,0.824067304 4.23537934,0.61588188 4.23537934,0.407696456 C4.23537934,0.199511032 4.07722844,0 3.76092664,0 L0.637446343,0 C0.321144541,0 0.16299364,0.199511032 0.16299364,0.407696456 C0.16299364,0.61588188 0.321144541,0.824067304 0.637446343,0.824067304 L1.70496493,0.824067304 L1.70496493,5.67305281 C1.70496493,5.90726141 1.92242241,6.07207488 2.18930206,6.07207488 C2.46606613,6.07207488 2.69340806,5.90726141 2.69340806,5.67305281 L2.69340806,0.824067304 Z" id="SMARTER-Copy"></path>
                    <path d="M10.1561537,0.390347671 C10.1561537,0.173487854 9.94858064,0 9.681701,0 L9.52355009,0 C9.21713272,0 9.08863511,0.13011589 9.01944409,0.286254958 L7.59608598,3.47843146 L6.17272788,0.286254958 C6.10353686,0.13011589 5.97503925,0 5.66862188,0 L5.51047098,0 C5.24359134,0 5.03601828,0.173487854 5.03601828,0.390347671 L5.03601828,5.67305281 C5.03601828,5.90726141 5.25347576,6.07207488 5.52035541,6.07207488 C5.79711949,6.07207488 6.02446141,5.90726141 6.02446141,5.67305281 L6.02446141,2.11655181 L7.09197999,4.52803298 C7.17105544,4.70152083 7.35885963,4.81428794 7.59608598,4.81428794 C7.84319676,4.81428794 8.02111653,4.70152083 8.10019198,4.52803298 L9.16771056,2.11655181 L9.16771056,5.67305281 C9.16771056,5.90726141 9.38516805,6.07207488 9.65204769,6.07207488 C9.92881178,6.07207488 10.1561537,5.90726141 10.1561537,5.67305281 L10.1561537,0.390347671 Z" id="SMARTER-Copy"></path>
                </g>
            </g>
            <path d="M223.169492,8.38983051 C223.169492,9.45762712 222.40678,10.0677966 221.338983,10.0677966 C220.423729,10.0677966 219.661017,9.61016949 219.508475,8.38983051 C219.050847,5.18644068 216.610169,3.50847458 213.711864,3.50847458 L213.40678,3.50847458 C210.661017,3.50847458 208.067797,5.33898305 208.067797,9 C208.067797,12.9661017 211.576271,14.4915254 215.694915,16.4745763 C219.813559,18.4576271 223.779661,20.8983051 223.779661,26.8474576 C223.779661,32.4915254 219.661017,36 214.169492,36 L213.711864,36 C208.677966,36 203.949153,32.4915254 203.949153,26.3898305 C203.949153,25.3220339 204.711864,24.559322 205.779661,24.559322 C206.694915,24.559322 207.610169,25.3220339 207.610169,26.3898305 C207.610169,30.2033898 210.508475,32.4915254 213.711864,32.4915254 L214.169492,32.4915254 C217.677966,32.4915254 220.118644,30.2033898 220.118644,26.8474576 C220.118644,22.7288136 217.220339,21.0508475 213.711864,19.5254237 C208.983051,17.3898305 204.40678,15.2542373 204.40678,9 C204.40678,3.3559322 208.830508,0 213.559322,0 L213.864407,0 C218.440678,0 222.254237,2.59322034 223.169492,6.71186441 L223.169492,8.38983051 Z M184.423729,34.3220339 C184.423729,35.2372881 183.508475,36 182.440678,36 C181.525424,36 180.610169,35.2372881 180.610169,34.3220339 L180.610169,1.6779661 C180.610169,0.762711864 181.372881,0 182.440678,0 C183.508475,0 184.423729,0.762711864 184.423729,1.6779661 L184.423729,17.8474576 L196.474576,0.762711864 C196.932203,0.152542373 197.389831,0 197.847458,0 C198.915254,0 199.677966,0.762711864 199.677966,1.83050847 C199.677966,2.28813559 199.525424,2.59322034 199.372881,2.89830508 L191.135593,14.6440678 L200.898305,33.2542373 C201.050847,33.559322 201.20339,33.8644068 201.20339,34.1694915 C201.20339,35.2372881 200.440678,36 199.220339,36 C198.457627,36 198,35.5423729 197.542373,34.9322034 L188.694915,18 L184.271186,24.4067797 L184.271186,34.3220339 L184.423729,34.3220339 Z M174.508475,35.8474576 L160.474576,35.8474576 C159.40678,35.8474576 158.644068,35.0847458 158.644068,34.1694915 L158.644068,1.6779661 C158.644068,0.762711864 159.40678,0 160.474576,0 C161.542373,0 162.457627,0.762711864 162.457627,1.6779661 L162.457627,32.1864407 L174.661017,32.1864407 C175.881356,32.1864407 176.338983,33.1016949 176.338983,34.0169492 C176.338983,34.9322034 175.728814,35.8474576 174.508475,35.8474576 L174.508475,35.8474576 Z M141.711864,6.71186441 L136.830508,23.4915254 L146.59322,23.4915254 L141.711864,6.71186441 Z M135.762712,27 L133.474576,34.6271186 C133.169492,35.5423729 132.40678,35.8474576 131.644068,35.8474576 C130.576271,35.8474576 129.813559,35.0847458 129.813559,34.1694915 C129.813559,34.0169492 129.966102,33.559322 129.966102,33.4067797 L139.423729,1.37288136 C140.033898,0.457627119 140.644068,0 141.559322,0 L141.864407,0 C142.779661,0 143.542373,0.457627119 143.847458,1.37288136 L153.305085,33.1016949 C153.457627,33.559322 153.610169,34.0169492 153.610169,34.1694915 C153.610169,35.0847458 153,35.8474576 151.779661,35.8474576 C151.016949,35.8474576 150.254237,35.3898305 149.949153,34.6271186 L147.661017,27 L135.762712,27 Z M122.186441,34.3220339 C122.186441,35.2372881 121.271186,36 120.20339,36 C119.288136,36 118.372881,35.2372881 118.372881,34.3220339 L118.372881,3.81355932 L111.813559,3.81355932 C110.59322,3.81355932 109.983051,2.89830508 109.983051,1.98305085 C109.983051,1.06779661 110.59322,0.305084746 111.813559,0.305084746 L128.440678,0.305084746 C129.661017,0.305084746 130.271186,1.22033898 130.271186,1.98305085 C130.271186,2.89830508 129.661017,3.81355932 128.440678,3.81355932 L122.033898,3.81355932 L122.033898,34.3220339 L122.186441,34.3220339 Z M74.1355932,1.83050847 C74.1355932,0.915254237 74.8983051,0 75.9661017,0 C77.0338983,0 77.9491525,0.762711864 77.9491525,1.83050847 L77.9491525,15.7118644 L90.6101695,15.7118644 L90.6101695,1.83050847 C90.6101695,0.915254237 91.3728814,0 92.440678,0 C93.5084746,0 94.2711864,0.762711864 94.2711864,1.83050847 L94.2711864,34.3220339 C94.2711864,35.2372881 93.3559322,36 92.440678,36 C91.3728814,36 90.6101695,35.2372881 90.6101695,34.3220339 L90.6101695,19.3728814 L77.9491525,19.3728814 L77.9491525,34.3220339 C77.9491525,35.2372881 77.0338983,36 75.9661017,36 C75.0508475,36 74.1355932,35.2372881 74.1355932,34.3220339 L74.1355932,1.83050847 Z M48.2033898,9.76271186 C48.2033898,4.27118644 52.3220339,0 57.9661017,0 L58.1186441,0 C64.5254237,0 67.8813559,5.18644068 67.8813559,9.45762712 L67.8813559,10.0677966 C67.8813559,11.2881356 66.8135593,12.0508475 66.0508475,12.0508475 C64.9830508,12.0508475 64.220339,11.1355932 64.220339,10.0677966 L64.220339,9.76271186 C64.220339,6.10169492 61.779661,3.50847458 58.2711864,3.50847458 L58.1186441,3.50847458 C54.4576271,3.50847458 52.0169492,6.25423729 52.0169492,9.76271186 L52.0169492,25.9322034 C52.0169492,29.440678 54.4576271,32.1864407 58.1186441,32.1864407 L58.2711864,32.1864407 C61.779661,32.1864407 64.0677966,29.7457627 64.220339,26.3898305 C64.3728814,25.3220339 65.1355932,24.559322 66.0508475,24.559322 C67.1186441,24.559322 67.8813559,25.3220339 67.8813559,26.3898305 L67.8813559,26.6949153 C67.8813559,29.5932203 65.440678,35.6949153 58.1186441,35.6949153 L57.9661017,35.6949153 C52.3220339,35.6949153 48.2033898,31.4237288 48.2033898,25.9322034 L48.2033898,9.76271186 Z M42.2542373,0.152542373 C43.4745763,0.152542373 44.0847458,1.06779661 44.0847458,1.83050847 C44.0847458,2.74576271 43.4745763,3.66101695 42.2542373,3.66101695 L28.8305085,3.66101695 L28.8305085,15.559322 L37.8305085,15.559322 C39.0508475,15.559322 39.6610169,16.4745763 39.6610169,17.2372881 C39.6610169,18.1525424 39.0508475,19.0677966 37.8305085,19.0677966 L28.8305085,19.0677966 L28.8305085,32.0338983 L42.2542373,32.0338983 C43.4745763,32.0338983 44.0847458,32.9491525 44.0847458,33.8644068 C44.0847458,34.779661 43.4745763,35.6949153 42.2542373,35.6949153 L26.8474576,35.6949153 C25.9322034,35.6949153 25.1694915,34.9322034 25.1694915,34.0169492 L25.1694915,1.83050847 C25.1694915,0.915254237 25.9322034,0.152542373 26.8474576,0.152542373 L42.2542373,0.152542373 Z M12.0508475,34.3220339 C12.0508475,35.2372881 11.1355932,36 10.0677966,36 C9.15254237,36 8.23728814,35.2372881 8.23728814,34.3220339 L8.23728814,3.81355932 L1.83050847,3.81355932 C0.610169492,3.66101695 0,2.74576271 0,1.83050847 C0,0.915254237 0.610169492,0.152542373 1.83050847,0.152542373 L18.4576271,0.152542373 C19.6779661,0.152542373 20.2881356,1.06779661 20.2881356,1.83050847 C20.2881356,2.74576271 19.6779661,3.66101695 18.4576271,3.66101695 L12.0508475,3.66101695 L12.0508475,34.3220339 Z" id="Page-1"></path>
        </g>
    </g>
</svg>