<svg width="34px" height="39px" viewBox="1472 56 34 39" version="1.1" xmlns="http://www.w3.org/2000/svg" xmlns:xlink="http://www.w3.org/1999/xlink">
    <!-- Generator: Sketch 42 (36781) - http://www.bohemiancoding.com/sketch -->
    <desc>Created with Sketch.</desc>
    <defs></defs>
    <g id="Group" stroke="none" stroke-width="1" fill="none" fill-rule="evenodd" transform="translate(1473.000000, 57.000000)">
        <path d="M21.5769448,16.5864915 L20.1506259,25.1478017 C19.8561873,26.6884786 18.8632299,27.1056413 17.981541,27.1056413 L11.3760318,27.1056413 L14.1593708,11.4243099 C11.379936,10.1259531 8.54226415,9.27766678 6.28240763,9.27766678 C4.13251822,9.27766678 2.3867091,9.87166668 1.22587293,11.2953385 C0.407626581,12.3068336 -3.25346482e-05,13.5559951 -3.25346482e-05,15.0414934 C-3.25346482e-05,19.4996505 3.43204728,25.6856259 9.30617764,30.7314672 C14.5429543,35.1919511 20.3035387,37.6896093 24.4966039,37.6896093 C26.5882563,37.6896093 28.2758284,37.0351125 29.3833078,35.7287781 C30.2552363,34.7179478 30.6027063,33.4072922 30.6027063,31.9217938 C30.6027063,27.589949 27.1459001,21.5173222 21.5769448,16.5864915" id="Fill-1" fill="#E15D29"></path>
        <path d="M9.71673234,-9.97201842e-05 C8.6681407,-9.97201842e-05 7.79686287,0.718882808 7.5645655,1.84738289 L6.63505066,7.01554764 L14.9417965,7.01554764 L11.3759993,27.1055084 L17.9815085,27.1055084 C18.8631974,27.1055084 19.8561548,26.688678 20.1505933,25.1480011 L23.1714352,7.01554764 L29.146423,7.01554764 C30.1989188,7.01554764 31.0682445,6.30155112 31.301518,5.17404824 L32.2339609,-9.97201842e-05 L9.71673234,-9.97201842e-05 Z" id="Fill-4" fill="#861C3F"></path>
    </g>
</svg>
