<?xml version="1.0" encoding="UTF-8" standalone="no"?>
<svg width="173px" height="27px" viewBox="0 0 173 27" version="1.1" xmlns="http://www.w3.org/2000/svg" xmlns:xlink="http://www.w3.org/1999/xlink">
    <!-- Generator: Sketch 43.1 (39012) - http://www.bohemiancoding.com/sketch -->
    <title>Page 1</title>
    <desc>Created with Sketch.</desc>
    <defs>
        <linearGradient x1="-44.5930274%" y1="0%" x2="128.119074%" y2="78.5733586%" id="linearGradient-1">
            <stop stop-color="#C24279" offset="0%"></stop>
            <stop stop-color="#EA5153" offset="33.6435746%"></stop>
            <stop stop-color="#F7AB59" offset="100%"></stop>
        </linearGradient>
    </defs>
    <g id="Symbols" stroke="none" stroke-width="1" fill="none" fill-rule="evenodd">
        <g id="Footer" transform="translate(-326.000000, -44.000000)" fill="url(#linearGradient-1)">
            <path d="M488.118197,50.0946691 C488.118197,50.8703542 487.564137,51.3136029 486.788451,51.3136029 C486.123578,51.3136029 485.569518,50.9811664 485.458706,50.0946691 C485.126269,47.7676136 483.353274,46.5486798 481.247843,46.5486798 L481.026219,46.5486798 C479.0316,46.5486798 477.147793,47.8784258 477.147793,50.5379177 C477.147793,53.419034 479.696473,54.5271557 482.688401,55.9677138 C485.68033,57.408272 488.561446,59.1812666 488.561446,63.502941 C488.561446,67.6029912 485.569518,70.151671 481.58028,70.151671 L481.247843,70.151671 C477.591042,70.151671 474.155865,67.6029912 474.155865,63.1705046 C474.155865,62.3948194 474.709925,61.8407586 475.485611,61.8407586 C476.150484,61.8407586 476.815357,62.3948194 476.815357,63.1705046 C476.815357,65.9408087 478.920788,67.6029912 481.247843,67.6029912 L481.58028,67.6029912 C484.12896,67.6029912 485.901954,65.9408087 485.901954,63.502941 C485.901954,60.5110126 483.796523,59.2920788 481.247843,58.1839571 C477.812666,56.6325868 474.488301,55.0812165 474.488301,50.5379177 C474.488301,46.4378676 477.701854,44 481.137031,44 L481.358655,44 C484.68302,44 487.453324,45.8838068 488.118197,48.8757353 L488.118197,50.0946691 Z M459.971908,68.9327371 C459.971908,69.5976101 459.307035,70.151671 458.531349,70.151671 C457.866476,70.151671 457.201603,69.5976101 457.201603,68.9327371 L457.201603,45.2189338 C457.201603,44.5540608 457.755664,44 458.531349,44 C459.307035,44 459.971908,44.5540608 459.971908,45.2189338 L459.971908,56.9650233 L468.726069,44.5540608 C469.058505,44.1108122 469.390942,44 469.723378,44 C470.499063,44 471.053124,44.5540608 471.053124,45.329746 C471.053124,45.6621825 470.942312,45.8838068 470.8315,46.1054311 L464.847643,54.6379678 L471.939621,68.157052 C472.050434,68.3786763 472.161246,68.6003006 472.161246,68.821925 C472.161246,69.5976101 471.607185,70.151671 470.720688,70.151671 C470.166627,70.151671 469.83419,69.8192345 469.501754,69.3759858 L463.074648,57.0758355 L459.861095,61.7299464 L459.861095,68.9327371 L459.971908,68.9327371 Z M452.769117,70.0408588 L442.574398,70.0408588 C441.798712,70.0408588 441.244652,69.486798 441.244652,68.821925 L441.244652,45.2189338 C441.244652,44.5540608 441.798712,44 442.574398,44 C443.350083,44 444.014956,44.5540608 444.014956,45.2189338 L444.014956,67.3813668 L452.879929,67.3813668 C453.766426,67.3813668 454.098863,68.0462398 454.098863,68.7111128 C454.098863,69.3759858 453.655614,70.0408588 452.769117,70.0408588 L452.769117,70.0408588 Z M428.944501,48.8757353 L425.398512,61.0650734 L432.490491,61.0650734 L428.944501,48.8757353 Z M424.622827,63.6137532 L422.960644,69.1543615 C422.73902,69.8192345 422.184959,70.0408588 421.630898,70.0408588 C420.855213,70.0408588 420.301152,69.486798 420.301152,68.821925 C420.301152,68.7111128 420.411965,68.3786763 420.411965,68.2678641 L427.282319,44.9973095 C427.725568,44.3324365 428.168816,44 428.833689,44 L429.055313,44 C429.720186,44 430.274247,44.3324365 430.495872,44.9973095 L437.366226,68.0462398 C437.477038,68.3786763 437.58785,68.7111128 437.58785,68.821925 C437.58785,69.486798 437.144602,70.0408588 436.258104,70.0408588 C435.704043,70.0408588 435.149983,69.7084223 434.928358,69.1543615 L433.266176,63.6137532 L424.622827,63.6137532 Z M414.760544,68.9327371 C414.760544,69.5976101 414.095671,70.151671 413.319986,70.151671 C412.655113,70.151671 411.99024,69.5976101 411.99024,68.9327371 L411.99024,46.7703041 L407.225317,46.7703041 C406.33882,46.7703041 405.895571,46.1054311 405.895571,45.4405581 C405.895571,44.7756852 406.33882,44.2216243 407.225317,44.2216243 L419.303843,44.2216243 C420.19034,44.2216243 420.633589,44.8864973 420.633589,45.4405581 C420.633589,46.1054311 420.19034,46.7703041 419.303843,46.7703041 L414.649732,46.7703041 L414.649732,68.9327371 L414.760544,68.9327371 Z M379.854712,45.329746 C379.854712,44.664873 380.408773,44 381.184458,44 C381.960143,44 382.625016,44.5540608 382.625016,45.329746 L382.625016,55.413653 L391.822426,55.413653 L391.822426,45.329746 C391.822426,44.664873 392.376487,44 393.152172,44 C393.927857,44 394.481918,44.5540608 394.481918,45.329746 L394.481918,68.9327371 C394.481918,69.5976101 393.817045,70.151671 393.152172,70.151671 C392.376487,70.151671 391.822426,69.5976101 391.822426,68.9327371 L391.822426,58.073145 L382.625016,58.073145 L382.625016,68.9327371 C382.625016,69.5976101 381.960143,70.151671 381.184458,70.151671 C380.519585,70.151671 379.854712,69.5976101 379.854712,68.9327371 L379.854712,45.329746 Z M361.016644,51.0919786 C361.016644,47.1027406 364.008573,44 368.108623,44 L368.219435,44 C372.873546,44 375.311413,47.7676136 375.311413,50.8703542 L375.311413,51.3136029 C375.311413,52.2001002 374.535728,52.754161 373.981667,52.754161 C373.205982,52.754161 372.651921,52.089288 372.651921,51.3136029 L372.651921,51.0919786 C372.651921,48.4324866 370.878927,46.5486798 368.330247,46.5486798 L368.219435,46.5486798 C365.559943,46.5486798 363.786948,48.5432988 363.786948,51.0919786 L363.786948,62.8380681 C363.786948,65.3867479 365.559943,67.3813668 368.219435,67.3813668 L368.330247,67.3813668 C370.878927,67.3813668 372.541109,65.6083722 372.651921,63.1705046 C372.762734,62.3948194 373.316794,61.8407586 373.981667,61.8407586 C374.757353,61.8407586 375.311413,62.3948194 375.311413,63.1705046 L375.311413,63.3921289 C375.311413,65.49756 373.538419,69.9300466 368.219435,69.9300466 L368.108623,69.9300466 C364.008573,69.9300466 361.016644,66.827306 361.016644,62.8380681 L361.016644,51.0919786 Z M356.69497,44.1108122 C357.581467,44.1108122 358.024716,44.7756852 358.024716,45.329746 C358.024716,45.994619 357.581467,46.659492 356.69497,46.659492 L346.943499,46.659492 L346.943499,55.3028408 L353.481417,55.3028408 C354.367914,55.3028408 354.811163,55.9677138 354.811163,56.5217747 C354.811163,57.1866476 354.367914,57.8515206 353.481417,57.8515206 L346.943499,57.8515206 L346.943499,67.2705547 L356.69497,67.2705547 C357.581467,67.2705547 358.024716,67.9354277 358.024716,68.6003006 C358.024716,69.2651736 357.581467,69.9300466 356.69497,69.9300466 L345.502941,69.9300466 C344.838068,69.9300466 344.284007,69.3759858 344.284007,68.7111128 L344.284007,45.329746 C344.284007,44.664873 344.838068,44.1108122 345.502941,44.1108122 L356.69497,44.1108122 Z M334.754161,68.9327371 C334.754161,69.5976101 334.089288,70.151671 333.313603,70.151671 C332.64873,70.151671 331.983857,69.5976101 331.983857,68.9327371 L331.983857,46.7703041 L327.329746,46.7703041 C326.443249,46.659492 326,45.994619 326,45.329746 C326,44.664873 326.443249,44.1108122 327.329746,44.1108122 L339.408272,44.1108122 C340.294769,44.1108122 340.738018,44.7756852 340.738018,45.329746 C340.738018,45.994619 340.294769,46.659492 339.408272,46.659492 L334.754161,46.659492 L334.754161,68.9327371 Z M493.88043,44.664873 L491.664187,44.664873 C491.442562,44.664873 491.33175,44.7756852 491.33175,44.8864973 C491.33175,44.9973095 491.442562,45.2189338 491.664187,45.2189338 L492.439872,45.2189338 L492.439872,48.4324866 C492.439872,48.5432988 492.550684,48.6541109 492.772308,48.6541109 C492.993933,48.6541109 493.104745,48.5432988 493.104745,48.4324866 L493.104745,45.2189338 L493.88043,45.2189338 C494.102054,45.2189338 494.212867,45.1081217 494.212867,44.8864973 C494.212867,44.664873 494.102054,44.664873 493.88043,44.664873 L493.88043,44.664873 Z M498.091292,44.664873 L498.091292,44.664873 C497.758856,44.664873 497.648044,44.7756852 497.648044,44.8864973 L496.650734,46.9919285 L495.653425,44.8864973 C495.653425,44.7756852 495.542613,44.664873 495.320988,44.664873 L495.210176,44.664873 C494.988552,44.664873 494.87774,44.7756852 494.87774,44.8864973 L494.87774,48.4324866 C494.87774,48.5432988 494.988552,48.6541109 495.210176,48.6541109 C495.4318,48.6541109 495.542613,48.5432988 495.542613,48.4324866 L495.542613,46.1054311 L496.318298,47.7676136 C496.42911,47.8784258 496.539922,47.9892379 496.650734,47.9892379 C496.872359,47.9892379 496.983171,47.8784258 496.983171,47.7676136 L497.758856,46.1054311 L497.758856,48.4324866 C497.758856,48.5432988 497.869668,48.6541109 498.091292,48.6541109 C498.312917,48.6541109 498.423729,48.5432988 498.423729,48.4324866 L498.423729,44.8864973 C498.423729,44.7756852 498.312917,44.664873 498.091292,44.664873 L498.091292,44.664873 Z" id="Page-1"></path>
        </g>
    </g>
</svg>